<svg width="206" height="45" viewBox="0 0 206 45" fill="none" xmlns="http://www.w3.org/2000/svg">
<path d="M65.3699 13.4304C64.3631 13.7682 63.5038 14.27 62.7987 14.939C61.9886 15.6835 61.3851 16.6182 60.9981 17.7464C60.6111 18.8779 60.4143 20.2915 60.4143 21.9838V37.5689C60.4143 38.2085 60.9325 38.7267 61.572 38.7267H64.8714C65.511 38.7267 66.0291 38.2085 66.0291 37.5689V24.2632C66.0291 22.9579 66.0488 21.9576 66.0816 21.2688C66.1177 20.5801 66.1767 20.0586 66.2686 19.7077C66.3571 19.3535 66.4883 19.055 66.6654 18.8058C66.9835 18.3466 67.3804 18.0023 67.8592 17.7727C68.3348 17.5431 68.9448 17.4283 69.686 17.4283H75.5272C76.1667 17.4283 76.6849 16.9101 76.6849 16.2706V14.083C76.6849 13.4435 76.1667 12.9253 75.5272 12.9253H69.2072C67.6559 12.9286 66.3768 13.0991 65.3699 13.4304Z" fill="white"/>
<path d="M100.128 16.2937C99.6493 15.6049 99.0425 15.0113 98.3013 14.5194C97.524 14.0241 96.5696 13.6371 95.4381 13.3518C94.3066 13.0697 93.0013 12.9287 91.5189 12.9287H89.5576C87.862 12.9287 86.3698 13.1058 85.0808 13.4567C83.7886 13.811 82.7588 14.4111 81.9815 15.2573C81.3092 15.8608 80.7713 16.6184 80.3646 17.5367C79.9579 18.455 79.6759 19.6127 79.5152 21.0066C79.3578 22.4005 79.2791 24.0862 79.2791 26.0639C79.2791 28.0416 79.3742 29.747 79.5709 31.177C79.7644 32.6069 80.099 33.7974 80.5778 34.7551C81.0566 35.7062 81.6798 36.4868 82.4604 37.087C83.2704 37.8282 84.2773 38.3398 85.481 38.6219C86.6813 38.9039 88.0391 39.0449 89.5576 39.0449H92.1027C93.7261 39.0449 95.0577 38.9564 96.1039 38.7826C97.1436 38.6055 98.0717 38.2873 98.8851 37.8282C99.3115 37.615 99.7149 37.3592 100.102 37.0607C100.21 36.9787 100.315 36.8902 100.417 36.7984C100.892 36.3786 100.915 35.6406 100.489 35.1716L98.8588 33.3711C98.4718 32.9447 97.8323 32.8627 97.3568 33.1874C97.3535 33.1907 97.3502 33.1907 97.3469 33.194C97.0649 33.3908 96.7828 33.5908 96.5007 33.804C96.0383 34.05 95.4414 34.2369 94.7002 34.3615C93.9557 34.4829 93.0571 34.5485 91.9977 34.5485H89.7183C88.905 34.5485 88.2261 34.4337 87.6784 34.2041C87.1306 33.9745 86.6617 33.6859 86.2746 33.3284C85.6712 32.8004 85.3104 31.9969 85.1891 30.9179C85.1005 30.157 85.0448 29.2616 85.0185 28.2449H96.34C97.7897 28.2449 98.8818 28.0416 99.6263 27.6349C100.368 27.2282 100.869 26.6641 101.135 25.9393C101.397 25.2145 101.532 24.3749 101.532 23.4237V21.7281C101.532 20.5606 101.417 19.5373 101.187 18.6551C100.958 17.7695 100.604 16.9824 100.128 16.2937ZM96.0744 23.0991C96.0744 23.4205 96.0121 23.6566 95.8874 23.8173C95.7661 23.9747 95.5103 24.0535 95.12 24.0535H85.0054C85.012 23.4139 85.0284 22.8137 85.0546 22.2529C85.0874 21.4067 85.2022 20.6819 85.399 20.0785C85.5925 19.4783 85.8844 19.0027 86.2746 18.6485C86.6617 18.2615 87.1208 17.9598 87.6488 17.7466C88.1802 17.5334 88.8492 17.4285 89.6626 17.4285H91.4107C92.2207 17.4285 92.9259 17.5006 93.5293 17.6416C94.1295 17.7827 94.5887 18.0122 94.9068 18.3304C95.366 18.6846 95.6743 19.1241 95.835 19.6554C95.9957 20.1834 96.0711 20.7869 96.0711 21.4559V23.0991H96.0744Z" fill="white"/>
<path d="M128.284 17.3529C127.858 16.4182 127.31 15.6868 126.641 15.1555C125.759 14.3093 124.699 13.7255 123.463 13.4074C122.226 13.0893 120.813 12.9286 119.222 12.9286H117.527C116.576 12.9286 115.683 13.0073 114.854 13.1647C114.024 13.3254 113.27 13.6009 112.601 13.9879H112.548V1.15773C112.548 0.518192 112.03 0 111.39 0H108.14C107.501 0 106.982 0.518192 106.982 1.15773V28.7138C106.982 30.3372 107.055 31.718 107.196 32.8495C107.333 33.9777 107.599 34.9157 107.989 35.6569C108.38 36.3981 108.98 37.0672 109.79 37.6706C110.603 38.1987 111.581 38.5627 112.732 38.7562C113.88 38.9497 115.319 39.0448 117.048 39.0448H119.219C120.633 39.0448 121.941 38.9038 123.138 38.6217C124.339 38.3397 125.454 37.792 126.477 36.9819C127.254 36.3817 127.861 35.5585 128.304 34.5188C128.746 33.4759 129.055 32.2493 129.232 30.839C129.409 29.4255 129.498 27.802 129.498 25.9654V25.6997C129.498 23.7909 129.399 22.1609 129.206 20.7998C129.015 19.4388 128.71 18.2876 128.284 17.3529ZM123.834 26.3327C123.834 28.0283 123.761 29.3697 123.62 30.3602C123.479 31.3474 123.25 32.1443 122.932 32.7445C122.65 33.3808 122.19 33.8367 121.557 34.1187C120.921 34.404 120.075 34.5451 119.012 34.5451H117.159C116.064 34.5451 115.228 34.4467 114.644 34.2532C114.06 34.0564 113.627 33.7678 113.345 33.3775C112.991 32.9183 112.768 32.3706 112.683 31.7376C112.594 31.1014 112.551 30.147 112.551 28.8745V24.214C112.551 23.2957 112.568 22.4889 112.604 21.8034C112.64 21.1147 112.692 20.5211 112.765 20.0291C112.837 19.5339 112.958 19.1633 113.135 18.9173C113.522 18.3171 114.044 17.9203 114.696 17.7235C115.349 17.53 116.136 17.4316 117.054 17.4316H119.068C120.019 17.4316 120.833 17.5726 121.505 17.8547C122.174 18.14 122.672 18.6156 122.987 19.2846C123.305 19.8159 123.525 20.5834 123.647 21.5903C123.771 22.5971 123.834 24.0533 123.834 25.9621V26.3327Z" fill="white"/>
<path d="M153.449 15.3131C152.744 14.503 151.8 13.8995 150.616 13.5125C149.432 13.1255 148.012 12.9287 146.352 12.9287H143.384C142.184 12.9287 141.098 13.0074 140.127 13.1648C139.153 13.3256 138.271 13.601 137.477 13.9881C136.998 14.2209 136.52 14.503 136.047 14.8277C135.519 15.1884 135.408 15.9264 135.785 16.4445L137.028 18.1729C137.379 18.6583 138.048 18.8092 138.556 18.4911C139.074 18.1631 139.635 17.927 140.232 17.7794C141.167 17.5498 142.325 17.435 143.702 17.435H145.876C146.618 17.435 147.228 17.5137 147.703 17.6712C148.182 17.8319 148.579 18.0352 148.897 18.2812C149.251 18.6026 149.487 19.0945 149.612 19.7636C149.737 20.4359 149.799 21.246 149.799 22.2037V22.6793H146.09C143.335 22.6793 141.17 22.8826 139.599 23.2893C138.028 23.696 136.693 24.4667 135.598 25.5949C135.034 26.1984 134.584 26.9363 134.247 27.8185C133.909 28.7041 133.745 29.7634 133.745 30.9966C133.745 32.4101 133.958 33.6269 134.381 34.6534C134.807 35.6767 135.408 36.5065 136.182 37.1427C136.995 37.7462 137.966 38.2119 139.094 38.5464C140.226 38.8842 141.478 39.0482 142.856 39.0482H146.509C148.133 39.0482 149.504 38.917 150.616 38.6514C151.727 38.389 152.639 37.9725 153.344 37.4084C154.122 36.6311 154.653 35.6439 154.935 34.4403C155.217 33.2399 155.358 31.7771 155.358 30.0455V22.0463C155.358 20.2457 155.201 18.842 154.883 17.8351C154.564 16.8217 154.086 15.9821 153.449 15.3131ZM149.792 30.6752C149.792 31.3114 149.74 31.8919 149.632 32.4232C149.527 32.9546 149.333 33.3416 149.051 33.5908C148.802 33.945 148.415 34.1943 147.884 34.332C147.356 34.4763 146.683 34.5452 145.87 34.5452H143.804C142.994 34.5452 142.311 34.4567 141.764 34.2796C141.216 34.1024 140.763 33.8368 140.413 33.4859C139.704 32.8857 139.353 31.987 139.353 30.7834C139.353 30.2554 139.432 29.7667 139.589 29.3272C139.75 28.8844 139.95 28.504 140.199 28.1859C140.695 27.6906 141.436 27.3561 142.426 27.179C143.413 27.0019 144.581 26.9166 145.922 26.9166H149.792V30.6752Z" fill="white"/>
<path d="M177.765 25.2735C177.27 24.9554 176.768 24.7192 176.256 24.5585C175.745 24.3978 175.204 24.2502 174.639 24.1092L167.857 22.8367C167.47 22.6957 167.152 22.571 166.906 22.4661C166.66 22.3611 166.443 22.2037 166.27 21.9872C166.161 21.7741 166.05 21.5117 165.925 21.1936C165.801 20.8754 165.738 20.5573 165.738 20.2424C165.738 19.6062 165.827 19.1569 166.004 18.8912C166.181 18.6255 166.339 18.4058 166.483 18.2287C166.801 17.9827 167.188 17.7859 167.647 17.6449C168.106 17.5039 168.815 17.4317 169.766 17.4317H171.675C172.488 17.4317 173.275 17.5924 174.033 17.9106C174.515 18.1106 174.977 18.3992 175.423 18.7699C175.882 19.1536 176.561 19.1011 176.975 18.6747L178.739 16.8545C179.215 16.3626 179.159 15.5721 178.631 15.1392C177.949 14.5817 177.201 14.1192 176.388 13.7486C175.187 13.2042 173.633 12.9287 171.727 12.9287H169.29C167.627 12.9287 166.217 13.1157 165.05 13.4863C163.885 13.8569 162.931 14.4308 162.19 15.2081C161.694 15.7722 161.298 16.4183 160.996 17.1398C160.694 17.8647 160.543 18.6485 160.543 19.4979V20.8229C160.543 21.7052 160.622 22.4989 160.783 23.2073C160.94 23.9124 161.252 24.5323 161.711 25.0603C162.098 25.5555 162.613 25.9688 163.246 26.3033C163.882 26.6411 164.643 26.9133 165.525 27.1265L172.517 28.4515C172.977 28.4876 173.347 28.5827 173.629 28.7434C173.911 28.9008 174.108 29.0353 174.213 29.1403C174.354 29.4223 174.449 29.7142 174.505 30.0127C174.557 30.3144 174.584 30.7473 174.584 31.3114C174.584 31.8427 174.538 32.3117 174.452 32.7151C174.364 33.1218 174.161 33.4662 173.842 33.7482C173.524 34.0664 173.049 34.2763 172.413 34.3845C171.776 34.4895 170.999 34.5452 170.081 34.5452H168.542C167.201 34.5452 166.047 34.3484 165.073 33.9614C164.423 33.7023 163.83 33.312 163.285 32.7873C162.819 32.338 162.072 32.3675 161.639 32.8463L160.032 34.6141C159.625 35.0601 159.628 35.7521 160.045 36.1883C160.625 36.7984 161.183 37.2903 161.708 37.6675C162.449 38.1955 163.331 38.5596 164.358 38.7531C165.381 38.9466 166.598 39.0417 168.011 39.0417H170.448C172.285 39.0417 173.793 38.8744 174.977 38.5399C176.161 38.2053 177.106 37.7364 177.814 37.1362C178.555 36.4999 179.103 35.7259 179.454 34.8043C179.808 33.886 179.982 32.8955 179.982 31.8395V30.5669C179.982 29.5797 179.857 28.6057 179.611 27.6546C179.372 26.7034 178.755 25.9065 177.765 25.2735Z" fill="white"/>
<path d="M204.094 27.6315C204.839 27.2248 205.341 26.6607 205.603 25.9359C205.869 25.2111 206 24.3715 206 23.4204V21.7248C206 20.5572 205.885 19.5339 205.656 18.6517C205.426 17.7694 205.072 16.9856 204.596 16.2969C204.117 15.6081 203.511 15.0145 202.769 14.5225C201.992 14.0273 201.038 13.6403 199.906 13.355C198.778 13.0729 197.469 12.9319 195.987 12.9319H194.029C192.333 12.9319 190.841 13.109 189.552 13.4599C188.263 13.8141 187.23 14.4143 186.453 15.2605C185.784 15.8639 185.243 16.6215 184.836 17.5399C184.429 18.4582 184.147 19.6159 183.99 21.0098C183.829 22.4037 183.75 24.0894 183.75 26.0671C183.75 28.0447 183.849 29.7502 184.042 31.1801C184.239 32.6101 184.574 33.8006 185.049 34.7583C185.528 35.7094 186.154 36.49 186.932 37.0901C187.742 37.8314 188.749 38.343 189.952 38.625C191.153 38.9071 192.514 39.0481 194.032 39.0481H196.574C198.198 39.0481 199.532 38.9596 200.575 38.7858C201.618 38.6086 202.543 38.2905 203.357 37.8314C203.78 37.6182 204.186 37.3624 204.573 37.0639C204.678 36.9819 204.783 36.8934 204.888 36.8048C205.364 36.385 205.387 35.6471 204.96 35.1781L203.33 33.3775C202.943 32.9512 202.304 32.8692 201.828 33.1939C201.825 33.1971 201.822 33.1971 201.818 33.2004C201.533 33.3972 201.251 33.5973 200.969 33.8104C200.51 34.0564 199.91 34.2434 199.168 34.368C198.427 34.4893 197.528 34.5549 196.466 34.5549H194.186C193.376 34.5549 192.694 34.4401 192.147 34.2106C191.599 33.981 191.13 33.6924 190.743 33.3349C190.143 32.8069 189.782 32.0033 189.657 30.9243C189.572 30.1634 189.513 29.2681 189.487 28.2514H200.808C202.258 28.2415 203.353 28.0349 204.094 27.6315ZM200.546 23.099C200.546 23.4204 200.483 23.6565 200.359 23.8172C200.234 23.9746 199.978 24.0533 199.591 24.0533H189.48C189.49 23.4138 189.503 22.8136 189.529 22.2528C189.565 21.4066 189.68 20.6818 189.874 20.0783C190.07 19.4782 190.359 19.0026 190.749 18.6484C191.136 18.2614 191.599 17.9597 192.127 17.7465C192.655 17.5333 193.327 17.4284 194.141 17.4284H195.889C196.702 17.4284 197.407 17.5005 198.007 17.6415C198.611 17.7826 199.067 18.0121 199.385 18.3303C199.844 18.6845 200.152 19.124 200.313 19.6553C200.474 20.1833 200.552 20.7868 200.552 21.4558V23.099H200.546Z" fill="white"/>
<path d="M24.0817 2.78101H18.5883C18.1094 2.78101 17.7224 3.16801 17.7224 3.64685V15.8572C17.7224 16.336 18.1094 16.723 18.5883 16.723H24.0817C24.5606 16.723 24.9476 16.336 24.9476 15.8572V3.64685C24.9476 3.16801 24.5606 2.78101 24.0817 2.78101Z" fill="white"/>
<path d="M24.1639 28.543H18.4999C15.5285 28.543 12.6817 29.7237 10.5827 31.8227L2.83278 39.5726C2.48185 39.9235 2.48185 40.4909 2.83278 40.8418L6.67002 44.6791C7.02095 45.03 7.58834 45.03 7.93927 44.6791L20.6973 31.9211C21.0482 31.5701 21.6156 31.5701 21.9665 31.9211L34.7246 44.6791C35.0755 45.03 35.6429 45.03 35.9938 44.6791L39.8311 40.8418C40.182 40.4909 40.182 39.9235 39.8311 39.5726L32.0811 31.8227C29.9821 29.7204 27.1353 28.543 24.1639 28.543Z" fill="white"/>
<path d="M25.3837 19.2914L38.3516 10.9412C38.7682 10.6723 39.3257 10.7937 39.5946 11.2102L42.5332 15.7722C42.8022 16.1888 42.6808 16.7463 42.2643 17.0152L31.5561 23.9124C29.749 25.0767 27.6434 25.6966 25.4919 25.6966H17.1877C15.0363 25.6966 12.934 25.0767 11.1236 23.9124L0.41208 17.0152C-0.00444123 16.7463 -0.12579 16.192 0.143145 15.7722L3.08175 11.2102C3.35069 10.7937 3.90496 10.6723 4.32476 10.9412L17.3124 19.3045C17.5911 19.4849 17.9158 19.58 18.2471 19.5767L24.4588 19.5636C24.7868 19.5636 25.1082 19.4717 25.3837 19.2914Z" fill="white"/>
</svg>
